<?xml version="1.0" standalone="no"?>
<!DOCTYPE svg PUBLIC "-//W3C//DTD SVG 20010904//EN"
 "http://www.w3.org/TR/2001/REC-SVG-20010904/DTD/svg10.dtd">
<svg version="1.0" xmlns="http://www.w3.org/2000/svg"
 width="597.000000pt" height="283.000000pt" viewBox="0 0 597.000000 283.000000"
 preserveAspectRatio="xMidYMid meet">
<metadata>
Created by potrace 1.16, written by Peter Selinger 2001-2019
</metadata>
<g transform="translate(0.000000,283.000000) scale(0.100000,-0.100000)"
fill="#000000" stroke="none">
<path d="M1309 1981 c-10 -13 -19 -29 -19 -35 0 -6 9 4 20 22 26 43 32 41 10
-4 -23 -45 -16 -68 40 -124 24 -24 40 -49 39 -62 0 -22 -1 -22 -9 -3 -8 19 -9
19 -9 -2 -1 -12 -7 -24 -13 -27 -7 -3 1 -3 17 1 24 4 20 0 -20 -21 -60 -31
-64 -32 -34 -5 13 11 18 18 12 14 -7 -3 -13 0 -14 7 0 7 -5 4 -10 -7 -8 -17
-9 -16 -5 8 2 21 -4 33 -26 52 -34 29 -66 32 -94 9 -18 -15 -18 -15 3 -5 34
17 55 13 88 -15 l30 -26 -32 21 c-35 24 -52 26 -87 10 -31 -14 -50 -59 -42
-96 5 -24 5 -25 -5 -10 -6 11 -9 33 -6 50 5 29 5 30 -5 9 -12 -25 -1 -76 17
-78 6 0 29 -10 52 -21 l42 -20 -27 -31 c-26 -31 -28 -32 -67 -20 -40 11 -105
63 -105 82 0 6 13 -5 28 -23 25 -30 108 -69 120 -56 2 2 -16 9 -40 16 -28 8
-57 27 -84 56 -30 32 -48 43 -70 43 -33 0 -66 -20 -70 -41 -3 -21 -23 -69 -28
-69 -2 0 -2 10 0 23 4 22 4 22 -6 -1 -6 -16 -7 -30 0 -40 8 -14 9 -14 10 -2 0
13 1 13 10 0 14 -21 12 -32 -2 -24 -7 4 -5 -1 4 -11 21 -23 71 -27 115 -8 37
15 117 10 141 -9 6 -6 12 -27 12 -48 l0 -38 -35 11 c-31 9 -39 8 -63 -10 -57
-42 -51 -111 12 -141 32 -16 78 -2 100 29 12 17 14 16 35 -20 15 -29 18 -42
10 -47 -8 -5 -9 -3 -4 6 6 10 4 11 -11 5 -10 -4 -32 -11 -49 -16 -29 -8 -28
-8 7 -6 21 2 35 0 30 -4 -4 -4 -27 -9 -52 -11 -47 -4 -73 -14 -66 -26 2 -4 0
-27 -5 -52 l-8 -45 2 42 c2 23 -1 39 -6 34 -14 -14 -4 -76 12 -76 8 0 16 -6
19 -14 3 -9 0 -11 -9 -6 -11 6 -11 5 -3 -4 6 -7 32 -13 57 -14 59 -2 93 27
103 89 10 66 24 72 89 38 35 -19 53 -34 50 -42 -3 -8 -5 -20 -5 -27 0 -8 -20
-34 -45 -59 -52 -54 -58 -89 -22 -132 32 -36 83 -36 115 1 24 29 27 56 11 104
-6 18 -8 51 -4 76 l6 45 44 0 44 0 -1 -37 c-2 -65 75 -106 129 -68 20 14 50
102 38 113 -3 3 -5 0 -5 -6 0 -6 -12 1 -26 15 -25 25 -26 27 -8 40 16 12 20
11 31 -3 7 -10 15 -34 19 -53 3 -20 15 -49 26 -65 12 -16 15 -25 7 -21 -8 5
-11 5 -7 0 11 -12 69 -14 96 -4 17 7 22 6 17 -4 -4 -6 7 3 24 21 17 18 31 43
31 56 0 27 -43 84 -62 83 -7 0 -29 1 -48 3 l-35 2 30 8 c23 6 25 8 8 9 -12 0
-29 4 -39 8 -12 5 -15 3 -9 -6 6 -10 3 -11 -14 -2 -20 11 -21 13 -6 39 37 62
41 64 87 57 32 -6 54 -19 87 -52 41 -43 47 -45 87 -40 31 3 42 1 37 -7 -3 -6
0 -6 7 1 36 33 25 173 -13 173 -6 0 -2 -7 9 -15 18 -14 17 -14 -9 -3 -22 9
-39 9 -78 -1 -54 -14 -139 -7 -151 12 -4 7 -8 21 -8 33 0 17 5 20 30 16 18 -2
41 3 58 12 l27 17 -24 -20 c-13 -12 -37 -21 -53 -21 -23 0 -29 -4 -26 -17 5
-25 77 -39 121 -25 l32 11 -37 -6 c-43 -6 -101 5 -92 18 3 5 13 9 23 9 9 0 30
14 47 32 16 17 23 28 17 24 -12 -7 -12 7 2 76 4 21 -57 78 -83 78 -10 0 -27
-7 -38 -16 -18 -15 -18 -15 3 -4 31 14 66 4 95 -28 l23 -27 -27 24 c-32 28
-79 32 -106 8 -17 -15 -19 -15 -36 14 -10 16 -15 36 -12 44 5 14 67 36 96 34
8 0 -7 -7 -33 -14 -27 -7 -51 -16 -54 -19 -9 -9 15 -56 28 -56 8 0 9 4 0 13
-6 8 -8 17 -4 20 3 4 0 7 -7 7 -24 0 0 15 41 25 22 5 39 13 37 16 -5 11 34 49
43 43 5 -3 14 6 21 20 8 20 8 32 0 52 -7 14 -16 23 -21 20 -4 -3 -16 3 -26 14
-22 24 -77 27 -95 5 -7 -9 -19 -14 -26 -11 -18 7 -36 -29 -31 -57 4 -20 4 -20
6 3 1 14 6 32 12 40 8 12 9 11 5 -5 -2 -11 -7 -35 -11 -53 -4 -18 -11 -29 -16
-26 -6 3 -9 -2 -7 -11 5 -26 -15 -28 -45 -5 -24 19 -25 22 -11 48 18 34 17 40
-2 77 -15 29 -14 29 3 12 12 -11 17 -31 17 -58 -1 -27 2 -36 7 -28 22 35 -6
98 -47 106 -33 7 -103 9 -101 4 1 -4 -7 -18 -17 -33 -12 -18 -16 -37 -12 -53
5 -20 3 -25 -13 -25 -27 0 -38 59 -22 121 7 27 10 57 7 67 -19 59 -120 80
-157 33z"/>
<path d="M2380 1870 c-30 -4 -66 -10 -79 -15 -18 -5 -22 -4 -16 6 5 8 -8 -2
-29 -21 -58 -54 -79 -108 -74 -189 6 -112 66 -189 166 -212 39 -9 106 4 118
22 4 7 -2 7 -16 -1 -22 -12 -107 -16 -117 -6 -3 3 17 5 45 4 27 0 63 7 80 16
37 19 45 20 37 4 -3 -7 4 -1 16 14 12 15 23 38 25 50 1 13 5 33 9 46 7 21 4
22 -38 22 -33 0 -49 -5 -56 -17 -6 -10 -11 -13 -11 -8 0 21 25 35 62 35 21 0
38 3 38 8 0 4 -18 6 -40 4 -28 -3 -46 -12 -60 -29 -22 -29 -26 -48 -7 -37 8 5
8 2 -2 -9 -8 -10 -28 -17 -47 -17 -55 0 -87 46 -87 127 0 32 7 62 17 78 36 55
104 58 134 5 15 -26 23 -30 61 -30 42 0 43 1 36 28 -3 15 -8 38 -9 51 -3 29
-59 82 -84 80 -9 -1 -42 -5 -72 -9z"/>
<path d="M2645 1849 c-39 -35 -66 -78 -64 -106 0 -10 5 -3 10 15 11 39 81 112
107 112 10 0 5 -6 -15 -16 -69 -34 -103 -124 -89 -237 13 -99 84 -159 186
-158 85 0 140 37 172 114 9 23 17 37 17 31 2 -24 -29 -80 -56 -105 -84 -77
-223 -66 -291 23 -18 23 -32 37 -32 31 0 -5 17 -28 38 -50 27 -30 52 -45 95
-58 52 -15 62 -15 110 -1 92 27 157 120 157 226 0 54 -15 104 -29 96 -5 -4 -7
3 -4 13 3 13 -7 29 -31 51 -31 29 -43 33 -103 36 -37 2 -85 6 -105 9 -31 4
-43 0 -73 -26z m193 -82 c72 -77 35 -227 -57 -227 -66 0 -78 17 -75 110 2 97
16 120 75 120 44 0 63 -21 74 -81 5 -27 1 -50 -14 -83 -18 -43 -22 -46 -57
-46 -21 0 -46 7 -56 17 -10 9 -18 11 -18 5 0 -18 38 -33 77 -30 51 4 77 42 77
113 0 71 -26 109 -77 113 -20 2 -45 -2 -56 -8 -26 -13 -45 -82 -37 -135 4 -36
4 -37 -6 -12 -15 41 -1 115 27 143 33 33 93 33 123 1z"/>
<path d="M2982 1868 c-7 -7 -12 -18 -12 -25 0 -18 32 -95 37 -89 2 2 -3 21
-11 41 -9 21 -16 45 -16 54 1 9 12 -15 25 -53 24 -65 34 -115 15 -71 -6 13 -9
15 -9 5 0 -18 47 -140 48 -124 1 6 -6 28 -14 47 -16 39 -20 61 -6 37 10 -16
51 -139 51 -149 -1 -3 -7 5 -16 19 l-15 25 7 -25 c4 -14 13 -37 20 -52 8 -15
14 -34 14 -43 0 -12 12 -15 53 -15 51 0 77 12 77 34 0 6 -5 3 -11 -6 -7 -13
-23 -18 -54 -18 -24 0 -46 3 -48 8 -3 4 16 5 42 4 l48 -4 27 87 c15 48 29 85
32 83 2 -3 -3 -24 -11 -48 -18 -51 -14 -65 6 -19 7 18 12 49 12 68 -1 20 3 43
8 51 7 11 9 8 5 -10 -4 -15 2 -9 13 15 11 22 22 54 26 70 4 22 0 18 -14 -15
-27 -61 -25 -40 3 44 l24 68 1 -198 c1 -143 5 -200 14 -206 7 -4 33 -8 60 -8
l47 0 -2 212 c-3 178 -5 212 -18 215 -13 4 -13 3 0 -6 11 -8 4 -11 -33 -11
-36 0 -46 3 -41 13 6 9 4 9 -8 -1 -11 -9 -18 -10 -23 -2 -3 5 -11 10 -16 10
-6 0 -7 -4 -4 -10 4 -6 -10 -10 -35 -10 -25 0 -39 4 -35 10 9 14 -4 12 -19 -3
-7 -6 -16 -28 -19 -47 -5 -25 -4 -31 3 -20 5 8 10 24 11 35 0 11 3 15 5 8 4
-9 -31 -146 -60 -238 -2 -5 -11 17 -21 50 -10 33 -26 88 -37 122 -11 34 -18
69 -16 79 2 9 -3 19 -11 22 -8 3 -11 0 -7 -7 5 -7 -6 -11 -34 -11 -25 0 -39 4
-35 10 9 14 -8 13 -23 -2z"/>
<path d="M3638 1863 l-128 -4 0 -194 0 -195 113 -2 112 -2 -110 -6 -110 -6
100 -2 c100 -2 156 5 137 17 -6 3 1 12 14 18 23 11 24 10 12 -5 -12 -16 -11
-16 11 -1 14 8 31 26 40 40 l15 24 -24 -20 c-22 -18 -23 -18 -10 -1 8 10 21
31 27 45 l13 26 -7 -25 c-5 -22 -4 -23 10 -11 12 9 14 18 8 30 -5 9 -11 58
-13 108 -1 50 -7 91 -12 90 -5 -1 -11 4 -14 12 -3 9 0 11 9 6 8 -4 -2 8 -20
28 -19 21 -37 36 -40 35 -4 -1 -63 -4 -133 -5z m98 -104 c15 -16 19 -36 19
-89 0 -59 -3 -72 -24 -94 -20 -21 -34 -26 -73 -26 l-48 0 0 115 0 115 53 0
c42 0 58 -5 73 -21z"/>
<path d="M3620 1665 l0 -105 43 0 c64 0 82 24 82 110 0 85 -11 100 -76 100
l-49 0 0 -105z m100 85 c11 -7 15 -28 15 -78 0 -83 -12 -102 -66 -102 l-39 0
0 95 0 95 38 0 c20 0 44 -5 52 -10z"/>
<path d="M4160 1856 c-6 -6 -10 -16 -10 -23 0 -7 -18 -16 -42 -20 -42 -7 -42
-7 -13 -14 l30 -7 -27 -1 c-25 -1 -28 -5 -28 -36 0 -34 2 -35 38 -36 l37 -2
-35 -7 -35 -7 33 -2 32 -1 0 -112 c0 -62 4 -119 9 -126 8 -14 108 -13 104 1
-2 4 -3 94 -3 201 l0 194 -40 4 c-22 2 -45 -1 -50 -6z"/>
<path d="M4382 1836 c-42 -44 -52 -68 -52 -124 0 -38 5 -53 22 -68 l22 -19
-17 25 c-19 28 -22 101 -6 133 15 29 60 77 72 77 5 0 -2 -9 -17 -21 -37 -29
-56 -71 -56 -125 0 -39 5 -51 33 -79 40 -40 80 -52 119 -37 25 9 28 8 28 -9 0
-29 -35 -59 -60 -52 -12 3 -24 12 -27 19 -6 15 -79 19 -100 6 -32 -20 51 -111
117 -127 30 -7 84 11 75 25 -3 5 0 7 8 4 8 -3 18 0 23 7 5 8 3 10 -6 4 -8 -5
-11 -4 -6 3 4 6 14 8 22 5 10 -4 15 -1 13 8 -1 8 5 31 14 51 23 50 23 194 1
241 -23 47 -69 74 -136 79 -54 4 -59 3 -86 -26z"/>
<path d="M3854 1755 c2 -11 8 -55 12 -97 l6 -78 79 0 79 0 0 45 0 45 -82 2
-83 2 85 6 85 6 -82 2 -83 2 0 28 c0 15 -5 34 -11 42 -8 12 -9 11 -5 -5z"/>
<path d="M2293 1370 c-18 -10 -39 -30 -49 -44 -9 -14 -20 -23 -25 -20 -15 9
-39 -61 -39 -113 0 -26 5 -64 10 -84 13 -47 52 -104 70 -105 8 0 32 -8 52 -17
46 -21 78 -21 123 -3 19 8 35 13 35 10 0 -3 -15 -11 -32 -19 -18 -8 -26 -14
-18 -15 8 0 29 9 45 20 17 11 26 20 21 20 -5 0 0 10 12 23 12 13 27 38 33 56
l11 32 25 -38 c13 -21 21 -29 18 -18 -41 118 23 235 128 235 51 0 91 -22 122
-67 14 -21 25 -32 25 -26 0 18 -49 72 -81 88 -87 45 -195 -16 -215 -122 -6
-31 -17 -38 -52 -34 -6 1 -17 -11 -23 -26 -26 -69 -94 -98 -163 -69 -20 8 -36
18 -36 21 0 3 10 0 23 -6 22 -12 22 -12 -2 14 -45 49 -49 156 -9 227 l20 35
-21 -19 c-18 -17 -21 -17 -15 -3 6 18 15 20 49 18 15 -1 17 0 7 7 -19 13 22
19 68 11 19 -3 26 -7 15 -8 l-20 -2 20 -9 c29 -12 37 -12 29 3 -4 6 0 5 9 -3
8 -8 18 -26 21 -40 5 -21 3 -20 -9 5 -8 17 -14 24 -15 17 -1 -29 21 -52 50
-52 28 0 29 2 27 39 -1 21 -6 36 -11 33 -5 -3 -7 2 -3 11 6 16 -15 42 -26 31
-3 -3 -16 1 -29 10 -33 23 -134 21 -175 -4z"/>
<path d="M2976 1293 c-4 -5 -24 -8 -44 -8 l-37 0 -3 -153 -3 -153 32 3 c18 2
34 10 36 18 4 13 3 13 -7 0 -8 -11 -10 10 -8 86 3 110 18 145 62 143 20 -1 20
-2 1 -6 -25 -6 -45 -22 -45 -36 0 -5 8 -3 18 6 10 10 26 17 34 17 17 0 29 42
18 61 -5 7 -19 10 -35 7 -14 -3 -23 -2 -18 2 4 5 19 10 33 13 l25 4 -26 2
c-14 0 -29 -2 -33 -6z"/>
<path d="M3124 1285 c-19 -15 -19 -15 1 -9 19 5 19 5 2 -6 -10 -7 -21 -9 -24
-6 -8 7 -43 -23 -43 -37 0 -5 8 -1 18 10 9 10 13 13 8 6 -4 -7 -15 -30 -23
-50 -11 -31 -13 -33 -10 -10 3 21 2 26 -7 17 -6 -6 -11 -37 -11 -70 0 -33 5
-64 11 -70 9 -9 10 -4 7 17 -3 21 0 18 11 -12 19 -48 19 -48 4 -39 -7 4 -8 3
-4 -5 4 -6 11 -9 15 -7 4 3 20 -4 37 -15 31 -20 118 -27 129 -9 3 6 11 10 18
10 18 0 -27 -29 -48 -31 -16 -1 -17 -2 -3 -6 19 -5 70 25 63 37 -3 4 3 14 12
21 14 12 16 12 8 0 -5 -10 -4 -12 3 -7 7 4 17 17 24 29 10 21 10 21 -7 7 -17
-14 -17 -14 -7 7 19 35 15 123 -8 160 -23 39 -51 55 -110 64 l-45 8 45 -3 c25
-1 54 -6 65 -10 13 -5 11 -2 -5 8 -32 20 -101 20 -126 1z m21 -64 c-3 -6 9 -7
30 -4 53 9 75 -16 77 -86 l1 -56 7 55 7 55 1 -48 c3 -87 -45 -133 -112 -107
-25 9 -52 47 -42 58 3 3 6 1 6 -4 0 -6 7 -19 15 -30 12 -16 12 -12 -1 21 -15
37 -15 73 1 120 l7 20 -13 -20 c-7 -11 -16 -38 -20 -60 l-6 -40 -2 35 c-1 31
30 100 44 100 4 0 4 -4 0 -9z"/>
<path d="M3450 1290 c-8 -5 -31 -8 -50 -5 l-35 5 30 -10 c20 -7 38 -7 56 1 15
6 40 9 55 6 28 -4 28 -4 -4 -6 -18 0 -46 -8 -62 -16 -17 -9 -30 -11 -30 -5 0
5 -11 10 -25 10 l-26 0 3 -142 3 -143 25 -3 25 -3 0 109 c0 105 1 111 25 131
26 22 65 27 89 12 10 -6 1 -8 -25 -4 -36 5 -43 2 -62 -22 -19 -24 -22 -39 -20
-119 l2 -91 5 96 c7 110 18 132 65 127 l31 -3 5 -115 6 -115 5 115 5 115 2
-118 2 -118 33 3 32 3 1 115 0 115 -6 -115 -6 -115 -2 112 c-1 61 -5 119 -9
129 -5 13 -3 15 8 10 8 -4 -3 8 -23 28 -30 28 -46 36 -75 36 -21 0 -45 -5 -53
-10z"/>
<path d="M3714 1284 c-18 -15 -18 -15 3 -5 32 16 106 13 129 -5 18 -15 18 -15
-3 -5 -32 16 -100 13 -135 -5 -19 -10 -28 -11 -23 -3 6 8 4 10 -4 5 -7 -5 -10
-13 -8 -20 3 -6 -1 -25 -9 -41 -10 -22 -12 -23 -8 -6 4 16 3 21 -5 17 -18 -11
-13 -36 10 -44 11 -5 21 -12 22 -17 1 -6 7 -8 12 -6 6 2 33 10 60 17 l50 14
-43 -5 c-33 -4 -44 -2 -48 10 -11 26 25 55 65 53 l36 -1 -35 -4 c-52 -6 -57
-19 -8 -19 40 1 43 -1 46 -26 3 -25 0 -28 -25 -28 -86 0 -148 -45 -141 -104 2
-19 0 -32 -4 -30 -14 9 -8 67 9 86 9 10 11 18 5 18 -25 0 -41 -65 -26 -104 3
-9 14 -16 24 -16 10 0 23 -7 30 -15 17 -20 94 -19 126 1 22 15 26 15 37 1 7
-9 26 -18 42 -20 l30 -4 -31 -2 c-18 0 -37 6 -44 14 -11 13 -16 14 -34 1 -12
-7 -31 -16 -41 -19 -20 -5 -20 -5 0 -6 11 0 29 6 39 14 17 13 22 13 37 -1 10
-9 30 -14 46 -12 22 2 27 8 25 23 -2 11 -6 70 -10 132 -4 61 -9 114 -12 116
-3 3 -4 -45 -4 -106 l1 -112 -7 105 c-9 129 -11 139 -39 162 -29 23 -109 25
-137 2z"/>
<path d="M4843 1281 c-39 -25 -50 -46 -48 -93 2 -37 19 -68 38 -68 6 0 1 10
-11 23 -12 13 -22 27 -22 33 0 5 5 1 11 -9 6 -10 25 -27 42 -38 24 -14 27 -19
12 -18 -11 1 -29 1 -40 0 l-20 -2 20 -9 c19 -8 19 -9 -2 -9 -34 -1 -29 -37 11
-77 30 -30 40 -34 84 -34 66 0 112 35 112 84 0 43 -26 66 -103 91 -49 16 -61
24 -62 43 -2 30 17 44 52 39 27 -4 27 -4 -4 -6 -17 0 -35 -5 -38 -11 -4 -6 6
-7 25 -4 21 5 36 2 49 -10 10 -9 21 -13 24 -9 4 3 7 1 7 -5 0 -17 50 -15 56 2
7 18 -21 72 -41 80 -9 3 -13 2 -10 -4 3 -5 -1 -7 -9 -4 -9 3 -14 11 -13 17 4
22 -85 20 -120 -2z"/>
<path d="M4139 1288 c0 -2 -2 -13 -3 -25 -2 -13 -6 -26 -11 -30 -4 -5 -5 1 -1
12 5 15 4 17 -4 8 -13 -12 -52 -124 -46 -130 2 -2 12 19 21 47 9 28 19 49 21
47 3 -2 -5 -30 -17 -62 -15 -41 -24 -54 -30 -44 -8 12 -10 12 -18 0 -6 -9 -18
12 -41 73 -28 75 -36 86 -56 86 -13 0 -24 -1 -24 -2 0 -2 21 -57 46 -123 25
-66 48 -130 51 -142 4 -16 13 -23 32 -24 l26 -1 -25 -9 -25 -8 24 2 c14 1 25
9 27 19 5 38 26 88 35 83 5 -4 6 0 3 8 -2 7 11 53 31 102 19 48 35 89 35 91 0
2 -12 5 -27 5 -27 2 -27 2 -4 6 43 8 51 -17 51 -164 l0 -133 35 0 35 0 0 145
0 145 -25 0 -24 0 -4 -142 -3 -143 1 145 0 145 30 0 30 0 5 -145 6 -145 2 141
c1 98 -2 144 -10 152 -15 15 -51 15 -66 0 -9 -9 -15 -9 -24 0 -10 10 -56 18
-59 10z"/>
<path d="M4687 1284 c-4 -4 -6 -21 -6 -38 1 -17 3 -23 6 -13 2 9 9 17 15 17 7
0 9 -30 6 -91 -5 -79 -9 -94 -29 -113 l-23 -21 18 23 c11 12 17 24 15 27 -3 2
-13 -9 -24 -26 -21 -30 -48 -38 -62 -16 -4 6 -11 64 -14 127 l-6 115 1 -122
c1 -66 -2 -119 -6 -116 -5 2 -8 56 -8 119 l0 114 -26 0 -26 0 4 -124 c2 -81 0
-122 -7 -119 -5 3 6 -10 24 -30 20 -22 44 -36 55 -36 20 2 20 2 0 6 -12 2 -32
16 -45 31 l-24 27 26 -22 c30 -28 109 -32 129 -8 7 8 17 15 23 15 11 0 -31
-34 -53 -43 -12 -4 -12 -6 2 -6 9 -1 20 4 23 9 3 6 22 10 41 10 l34 0 0 145
c0 133 -1 145 -18 145 -10 0 -23 5 -28 10 -6 6 -13 7 -17 4z"/>
<path d="M2644 1261 c-43 -26 -69 -95 -59 -153 3 -24 8 -54 9 -68 3 -26 66
-80 95 -80 9 0 -3 9 -26 21 -23 11 -48 28 -55 37 -7 8 5 4 27 -11 49 -33 106
-36 153 -7 19 12 30 16 27 9 -4 -6 -26 -20 -49 -30 -22 -10 -35 -19 -28 -19
25 0 71 30 96 63 31 41 35 59 5 26 l-21 -24 16 25 c24 36 21 125 -5 167 -39
62 -123 82 -185 44z m124 -41 c29 -24 43 -116 21 -134 -8 -6 -21 -20 -29 -31
-14 -19 -14 -19 6 -5 13 10 12 7 -4 -7 -13 -13 -34 -23 -46 -23 -25 0 -76 35
-76 52 0 6 9 0 20 -13 l21 -24 -16 34 c-17 33 -17 85 0 126 6 16 5 18 -4 9 -7
-7 -17 -36 -21 -65 l-9 -54 3 53 c2 40 9 59 26 75 13 12 20 16 16 10 -5 -9 1
-11 23 -7 21 4 40 1 58 -11 l28 -18 -19 21 c-10 11 -32 23 -50 25 l-31 4 30 1
c17 1 40 -7 53 -18z"/>
<path d="M4412 1264 c-12 -8 -22 -10 -22 -5 0 6 -11 11 -25 11 l-25 0 0 -145
0 -145 25 0 c25 0 25 1 27 98 l2 97 6 -95 6 -95 3 85 c4 110 11 134 41 140 20
4 26 12 28 38 3 28 1 32 -20 32 -13 0 -34 -7 -46 -16z"/>
</g>
</svg>
