<svg id="Capa_1" enable-background="new 0 0 510.508 510.508" height="512" viewBox="0 0 510.508 510.508" width="512" xmlns="http://www.w3.org/2000/svg"><g><g><g><g><g><g><g><g><path d="m230.759 57.115h30v59.626h-30z" fill="#5fa88e" transform="matrix(.755 -.656 .656 .755 3.21 182.446)"/></g><g><path d="m159.4 95.495h30v59.625h-30z" fill="#5fa88e" transform="matrix(.949 -.316 .316 .949 -30.626 61.419)"/></g><g><path d="m75.081 136.906h30v59.625h-30z" fill="#5fa88e" transform="matrix(.783 -.622 .622 .783 -84.135 92.163)"/></g></g><g><g><path d="m23.697 216.912h30v59.625h-30z" fill="#5fa88e" transform="matrix(.349 -.937 .937 .349 -206.036 196.961)"/></g><g><path d="m4.151 324.085h59.625v30h-59.625z" fill="#5fa88e" transform="matrix(.984 -.178 .178 .984 -59.9 11.485)"/></g><g><path d="m43.943 406.505h59.625v30h-59.625z" fill="#5fa88e" transform="matrix(.75 -.662 .662 .75 -260.487 154.32)"/></g></g><g><g><path d="m120.632 456.452h59.625v30h-59.625z" fill="#4a8375" transform="matrix(.301 -.954 .954 .301 -344.427 472.925)"/></g><g><path d="m227.67 448.223h30v59.625h-30z" fill="#4a8375" transform="matrix(.973 -.231 .231 .973 -103.929 69.042)"/></g><g><path d="m312.865 406.198h30v59.625h-30z" fill="#4a8375" transform="matrix(.714 -.7 .7 .714 -211.478 354.092)"/></g></g><g><g><path d="m365.236 324.807h29.999v59.625h-29.999z" fill="#4a8375" transform="matrix(.255 -.967 .967 .255 -59.605 631.881)"/></g><g><path d="m398.228 251.003h30v59.626h-30z" fill="#4a8375" transform="matrix(.577 -.817 .817 .577 -54.634 456.086)"/></g><g><path d="m453.408 181.187h29.999v59.625h-29.999z" fill="#4a8375" transform="matrix(.51 -.86 .86 .51 47.954 506.203)"/></g></g><g><g><path d="m445.935 100.194h59.625v30h-59.625z" fill="#4a8375" transform="matrix(.961 -.278 .278 .961 -13.278 136.63)"/></g><g><path d="m385.111 29.75h59.625v30.001h-59.625z" fill="#5fa88e" transform="matrix(.452 -.892 .892 .452 187.303 394.54)"/></g><g><path d="m305.813 3.307h30v59.625h-30z" fill="#5fa88e" transform="matrix(.942 -.336 .336 .942 7.524 109.72)"/></g></g></g></g></g></g><g><path d="m431.878 67.901c-40.702-35.452-102.722-34.142-142.013 2.867-2.681 2.525-5.2 5.154-7.557 7.875-30.001 34.621-69.852 59.707-114.377 70.49-29.095 7.046-56.596 22.353-78.773 45.93-58.238 61.914-57.377 160.113 1.877 221.055.553.569 1.116 1.121 1.676 1.68l187.847-166.442 156.862-178.268c-1.774-1.776-3.616-3.509-5.542-5.187z" fill="#c3edb0"/><path d="m437.42 73.088-344.71 344.71c62.494 62.436 163.762 62.43 226.233-.042 20.791-20.791 34.657-45.878 41.604-72.404 11.815-45.11 35.385-86.535 70.787-116.886 2.067-1.772 4.082-3.637 6.04-5.595 41.36-41.359 41.37-108.401.046-149.783z" fill="#7cdb80"/></g></g><g><path d="m351.427 117.094c-23.54 0-42.622 19.083-42.622 42.622 0 11.608 4.647 22.126 12.174 29.813l36.535-23.726 23.726-36.535c-7.687-7.527-18.205-12.174-29.813-12.174z" fill="#5fa88e"/><path d="m381.24 129.268-60.262 60.262c7.737 7.901 18.517 12.809 30.449 12.809 23.54 0 42.622-19.083 42.622-42.622 0-11.932-4.909-22.712-12.809-30.449z" fill="#4a8375"/><path d="m204.687 232.198c-40.612 0-73.534 32.922-73.534 73.534 0 20.328 8.25 38.729 21.583 52.039l62.742-38.76 41.248-65.23c-13.31-13.333-31.71-21.583-52.039-21.583z" fill="#7cdb80"/></g><path d="m204.687 379.266c40.612 0 73.534-32.922 73.534-73.534 0-20.283-8.213-38.647-21.494-51.951l-103.99 103.99c13.303 13.281 31.667 21.495 51.95 21.495z" fill="#5fa88e"/></g></svg>