<svg id="Capa_1" enable-background="new 0 0 512.01 512.01" height="512" viewBox="0 0 512.01 512.01" width="512" xmlns="http://www.w3.org/2000/svg"><g><g><path d="m342.71 178.371h87.079v87.079h-87.079z" fill="#9c9c9c"/><path d="m398.608 178.371h31.181v87.079h-31.181z" fill="#838383"/><path d="m438.421 159.063h-104.343c-2.723 0-4.93 2.207-4.93 4.93v28.756c0 2.723 2.207 4.93 4.93 4.93h104.342c2.723 0 4.93-2.207 4.93-4.93v-28.756c0-2.723-2.207-4.93-4.929-4.93z" fill="#5a5a5a"/><path d="m438.421 159.063h-31.181c2.722 0 4.929 2.207 4.929 4.93v28.756c0 2.723-2.207 4.93-4.929 4.93h31.181c2.723 0 4.93-2.207 4.93-4.93v-28.756c-.001-2.723-2.208-4.93-4.93-4.93z" fill="#444"/><path d="m7.5 363.221v65.18c0 4.084 3.311 7.394 7.394 7.394h482.201c5.638 0 9.202-6.057 6.464-10.986l-38.33-68.983h-450.335c-4.083.001-7.394 3.311-7.394 7.395z" fill="#cecece"/><path d="m197.288 246.828h268.498v108.998h-268.498z" fill="#5a5a5a"/><path d="m27.081 53.136h211.15v193.693h-211.15z" fill="#9c9c9c"/><path d="m60.081 185.289v-71.229c0-4.418 3.582-8 8-8h129.149c4.418 0 8 3.582 8 8v71.229c0 4.418-3.582 8-8 8h-129.149c-4.418 0-8-3.582-8-8z" fill="#c8effe"/><path d="m465.786 355.827c18.755 0 33.959-15.204 33.959-33.959v-41.08c0-18.755-15.204-33.959-33.959-33.959z" fill="#e53950"/><g fill="#5a5a5a"><circle cx="97.257" cy="417.602" r="61.196"/><circle cx="220.521" cy="417.602" r="61.196"/><circle cx="356.27" cy="437.094" r="36.76"/><circle cx="429.789" cy="437.094" r="36.76"/></g><path d="m251.513 355.827h-237.714v-122.966c0-3.63 2.943-6.573 6.573-6.573h224.569c3.63 0 6.573 2.943 6.573 6.573v122.966z" fill="#eb5569"/><path d="m503.559 424.809-38.33-68.983h-31.181l38.33 68.983c2.739 4.929-.825 10.986-6.463 10.986h31.181c5.637 0 9.201-6.057 6.463-10.986z" fill="#bfbfbf"/><path d="m434.605 246.828h31.181v108.998h-31.181z" fill="#444"/><path d="m27.081 53.136h211.15v34.096h-211.15z" fill="#838383"/><path d="m246.513 73.059h-227.714c-2.761 0-5-2.239-5-5v-29.846c0-2.761 2.239-5 5-5h227.714c2.761 0 5 2.239 5 5v29.846c0 2.761-2.238 5-5 5z" fill="#eb5569"/><path d="m244.941 226.289h-34.016c3.63 0 6.573 2.943 6.573 6.573v122.965h34.016v-122.966c-.001-3.63-2.943-6.572-6.573-6.572z" fill="#e53950"/><path d="m246.513 33.213h-34.016c2.761 0 5 2.239 5 5v29.846c0 2.761-2.239 5-5 5h34.016c2.761 0 5-2.239 5-5v-29.846c0-2.762-2.238-5-5-5z" fill="#e53950"/><path d="m429.789 400.334c-5.024 0-9.811 1.011-14.173 2.835 13.265 5.548 22.586 18.646 22.586 33.924s-9.322 28.376-22.586 33.924c4.362 1.825 9.149 2.835 14.173 2.835 20.302 0 36.76-16.458 36.76-36.76-.001-20.3-16.458-36.758-36.76-36.758z" fill="#444"/><path d="m356.27 400.334c-3.958 0-7.766.633-11.339 1.79 14.751 4.78 25.421 18.625 25.421 34.969s-10.67 30.189-25.421 34.969c3.572 1.158 7.381 1.791 11.339 1.791 20.302 0 36.76-16.458 36.76-36.76-.001-20.301-16.458-36.759-36.76-36.759z" fill="#444"/><path d="m97.257 356.405c-4.881 0-9.622.588-14.173 1.668 26.96 6.396 47.023 30.612 47.023 59.528 0 28.917-20.063 53.132-47.023 59.528 4.551 1.08 9.292 1.668 14.173 1.668 33.798 0 61.196-27.398 61.196-61.196 0-33.797-27.399-61.196-61.196-61.196z" fill="#444"/><path d="m220.521 356.405c-4.881 0-9.622.588-14.173 1.668 26.96 6.396 47.023 30.612 47.023 59.528 0 28.917-20.063 53.132-47.023 59.528 4.551 1.08 9.292 1.668 14.173 1.668 33.798 0 61.196-27.398 61.196-61.196 0-33.797-27.398-61.196-61.196-61.196z" fill="#444"/><path d="m225.823 429.925h-134.741c-6.806 0-12.324-5.518-12.324-12.324 0-6.806 5.518-12.324 12.324-12.324h134.741c6.806 0 12.324 5.518 12.324 12.324 0 6.807-5.517 12.324-12.324 12.324z" fill="#acacac"/></g><g><path d="m68.081 200.789h129.149c8.547 0 15.5-6.953 15.5-15.5v-71.229c0-8.547-6.953-15.5-15.5-15.5h-129.149c-8.547 0-15.5 6.953-15.5 15.5v71.229c0 8.547 6.953 15.5 15.5 15.5zm-.5-86.73c0-.276.225-.5.5-.5h129.149c.275 0 .5.224.5.5v71.229c0 .276-.225.5-.5.5h-129.149c-.275 0-.5-.224-.5-.5z"/><path d="m510.114 421.167-33.017-59.422c17.378-4.937 30.148-20.939 30.148-39.878v-41.08c0-22.861-18.599-41.459-41.459-41.459h-28.497v-34.15h1.132c6.854 0 12.43-5.576 12.43-12.43v-28.756c0-6.854-5.576-12.429-12.43-12.429h-104.343c-6.854 0-12.43 5.576-12.43 12.429v28.756c0 6.854 5.576 12.43 12.43 12.43h1.132v34.15h-76.196v-6.467c0-7.493-5.892-13.619-13.283-14.033v-138.269h.783c6.893 0 12.5-5.607 12.5-12.5v-29.846c0-6.893-5.607-12.5-12.5-12.5h-21.725c-4.143 0-7.5 3.358-7.5 7.5s3.357 7.5 7.5 7.5h19.225v24.846c-10.564 0-211.512 0-222.715 0v-24.846h168.49c4.143 0 7.5-3.358 7.5-7.5s-3.357-7.5-7.5-7.5h-170.99c-6.893 0-12.5 5.607-12.5 12.5v29.846c0 6.893 5.607 12.5 12.5 12.5h.782v138.27c-7.391.414-13.282 6.54-13.282 14.033v40.68c0 4.142 3.357 7.5 7.5 7.5s7.5-3.358 7.5-7.5v-39.752h222.715c0 5.514-.001 110.666-.001 114.538h-222.714v-39.785c0-4.142-3.357-7.5-7.5-7.5s-7.5 3.358-7.5 7.5v42.537c-3.804 2.7-6.299 7.13-6.299 12.141v65.18c0 8.212 6.682 14.894 14.895 14.894h18.67c10.197 25.184 34.896 43.003 63.692 43.003 26.54 0 50.278-15.396 61.632-38.359 11.354 22.962 35.092 38.359 61.632 38.359 28.797 0 53.496-17.819 63.692-43.003h28.241c3.026 21.478 21.516 38.059 43.815 38.059 15.299 0 28.807-7.804 36.76-19.638 7.952 11.834 21.461 19.638 36.76 19.638 22.3 0 40.791-16.58 43.816-38.059h23.489c5.334 0 10.133-2.745 12.838-7.341 2.705-4.597 2.773-10.125.182-14.787zm-279.384-202.379h-196.149v-138.229h196.149zm242.556 36.623c10.949 3.241 18.959 13.391 18.959 25.377v41.08c0 11.986-8.01 22.136-18.959 25.376zm-136.638-88.847h99.202v23.615h-6.062-87.078-6.062zm85.641 38.614v34.15h-72.079v-34.15zm-163.275 49.15h199.272v93.998h-199.272zm-80.519 108.998c-8.071 6.248-14.978 14.559-19.606 23.92-4.516-9.133-11.329-17.513-19.606-23.92zm-149.105 64.969h-14.39v-64.968h40.189c-20.378 15.829-29.576 40.924-25.799 64.968zm67.867 43.003c-27.561 0-50.536-20.932-53.394-48.02-3.367-31.898 21.736-59.372 53.394-59.372 21.939 0 41.842 13.577 49.918 33.872h-56.093c-3.312 0-6.541.818-9.441 2.396-13.042 7.093-14.033 25.478-1.635 33.862 3.164 2.14 6.977 3.39 11.076 3.39h56.093c-7.992 20.078-27.702 33.872-49.918 33.872zm-6.175-48.873c-2.66 0-4.824-2.164-4.824-4.824s2.164-4.824 4.824-4.824h134.741c2.66 0 4.824 2.164 4.824 4.824s-2.164 4.824-4.824 4.824c-3.025 0-131.957 0-134.741 0zm182.832.852c-2.855 27.062-25.806 48.02-53.394 48.02-22.216 0-41.926-13.793-49.918-33.872h55.221c10.931 0 19.824-8.893 19.824-19.824s-8.894-19.824-19.824-19.824h-55.22c7.977-20.047 27.694-33.872 49.918-33.872 31.713 0 56.755 27.53 53.393 59.372zm82.356 43.076c-16.882 0-30.592-14.415-29.146-31.748.001-.012.002-.024.003-.036 1.267-14.946 13.858-26.736 29.143-26.736 14.55 0 27.089 10.802 29 25.425 2.306 17.854-11.626 33.095-29 33.095zm73.519 0c-16.357 0-29.796-13.547-29.234-30.265 0-.011.002-.022.003-.033.543-15.672 13.459-28.221 29.231-28.221 15.48 0 28.674 12.236 29.231 28.221 0 .011.002.022.003.033.563 16.747-12.904 30.265-29.234 30.265zm43.384-38.058c-4.123-20.718-22.274-35.46-43.384-35.46-14.603 0-28.467 7.152-36.76 19.505-8.359-12.449-22.268-19.505-36.76-19.505-21.084 0-39.256 14.719-43.384 35.46h-24.498c3.84-24.145-5.589-49.269-25.8-64.968h198.228l36.1 64.968zm23.84.176c-.003-.006-.005-.013-.007-.021l6.553-3.641z"/></g></g></svg>