<svg id="Capa_1" enable-background="new 0 0 512 512" height="512" viewBox="0 0 512 512" width="512" xmlns="http://www.w3.org/2000/svg"><g><path d="m0 328.994v83.894c0 31.256 25.338 56.594 56.594 56.594h.107c5.188 0 10.351-.713 15.345-2.12l58.834-16.573c4.994-1.407 10.157-2.12 15.345-2.12h220.483c5.259 0 10.491.733 15.548 2.178l57.603 16.458c5.056 1.445 10.289 2.178 15.548 2.178 31.256 0 56.594-25.338 56.594-56.594v-83.894h-512.001z" fill="#ffc250"/><path d="m477.659 328.994v83.894c0 25.28-16.578 46.682-39.453 53.944l1.653.472c5.056 1.445 10.289 2.178 15.548 2.178 31.256 0 56.594-25.338 56.594-56.594v-83.894z" fill="#ebb044"/><path d="m439.858 65.509-57.603 16.458c-5.056 1.445-10.289 2.178-15.548 2.178h-220.482c-5.188 0-10.351-.713-15.345-2.12l-58.834-16.574c-4.994-1.407-10.157-2.12-15.345-2.12h-.107c-31.256 0-56.594 25.338-56.594 56.594v240.633c0 31.256 25.338 56.594 56.594 56.594h.107c5.188 0 10.351-.713 15.345-2.12l58.834-16.573c4.994-1.407 10.157-2.12 15.345-2.12h220.483c5.259 0 10.491.733 15.548 2.178l57.603 16.458c5.056 1.445 10.289 2.178 15.548 2.178 31.256 0 56.594-25.338 56.594-56.594v-240.634c0-31.256-25.338-56.594-56.594-56.594-5.26 0-10.492.733-15.549 2.178z" fill="#ffe07d"/><path d="m455.406 63.331c-5.259 0-10.491.733-15.548 2.177l-1.653.472c22.875 7.262 39.453 28.664 39.453 53.944v240.633c0 25.28-16.578 46.682-39.453 53.944l1.653.472c5.056 1.445 10.289 2.178 15.548 2.178 31.256 0 56.594-25.338 56.594-56.594v-240.632c0-31.256-25.338-56.594-56.594-56.594z" fill="#ffd064"/><g fill="#ffc250"><path d="m372.85 185.236c0 16.749-13.578 30.328-30.328 30.328s-30.328-13.578-30.328-30.328 13.578-22.746 30.328-22.746 30.328 5.996 30.328 22.746z"/><ellipse cx="440.715" cy="153.347" rx="27.577" ry="23.415"/><path d="m338.211 304.762c0 11.495-19.725 31.22-31.22 31.22s-20.813-19.725-20.813-31.22 9.318-20.813 20.813-20.813c11.496 0 31.22 9.318 31.22 20.813z"/><path d="m448.111 339.884c-8.128 8.128-21.306 8.128-29.434 0s-8.128-21.306 0-29.434 28.665-15.486 36.793-7.358c8.127 8.128.769 28.664-7.359 36.792z"/><circle cx="92.618" cy="283.949" r="31.22"/><ellipse cx="94.699" cy="156.99" rx="23.935" ry="20.813"/><circle cx="198.764" cy="328.697" r="20.813"/><circle cx="205.008" cy="236.376" r="20.813"/></g><circle cx="235.187" cy="140.339" fill="#ecf4ff" r="33.301"/><path d="m248.17 109.665c1.691 3.99 2.627 8.377 2.627 12.983 0 18.392-14.909 33.301-33.301 33.301-4.606 0-8.994-.936-12.983-2.627 5.06 11.941 16.889 20.318 30.674 20.318 18.392 0 33.301-14.909 33.301-33.301 0-13.785-8.377-25.614-20.318-30.674z" fill="#ddeafb"/><circle cx="298.667" cy="63.331" fill="#ecf4ff" r="20.813"/><path d="m306.781 44.16c1.057 2.494 1.642 5.236 1.642 8.115 0 11.495-9.318 20.813-20.813 20.813-2.879 0-5.621-.585-8.115-1.642 3.163 7.463 10.556 12.698 19.171 12.698 11.495 0 20.813-9.318 20.813-20.813.001-8.616-5.235-16.009-12.698-19.171z" fill="#ddeafb"/><circle cx="193.561" cy="104.957" fill="#ecf4ff" r="20.813"/><path d="m201.675 85.786c1.057 2.494 1.642 5.236 1.642 8.115 0 11.495-9.318 20.813-20.813 20.813-2.879 0-5.621-.585-8.115-1.642 3.163 7.463 10.556 12.698 19.171 12.698 11.495 0 20.813-9.318 20.813-20.813.001-8.616-5.234-16.009-12.698-19.171z" fill="#ddeafb"/><path d="m404.53 469.482c6.774 0 11.784-6.448 9.957-12.97-5.658-20.202-24.207-35.019-46.216-35.019-2.141 0-4.245.155-6.312.427-9.159-21.412-30.411-36.418-55.173-36.418-9.086 0-17.695 2.031-25.413 5.647-9.459-24.361-33.113-41.639-60.817-41.639-27.692 0-51.338 17.264-60.805 41.608-2.855-.729-5.847-1.118-8.929-1.118-17.537 0-32.138 12.546-35.334 29.151-2.657-.427-5.379-.657-8.156-.657-23.714 0-43.646 16.188-49.35 38.117-1.694 6.514 3.252 12.871 9.983 12.871z" fill="#ecf4ff"/><path d="m205.135 469.482h199.395c6.774 0 11.784-6.448 9.957-12.97-5.658-20.202-24.207-35.018-46.215-35.018-2.141 0-4.245.154-6.313.427-9.159-21.412-30.411-36.418-55.173-36.418-5.625 0-11.065.782-16.226 2.233-10.766 32.764-42.239 63.722-85.425 81.746z" fill="#ddeafb"/></g></svg>